<svg version="1.1" id="Layer_1" xmlns="http://www.w3.org/2000/svg" xmlns:xlink="http://www.w3.org/1999/xlink" x="0px" y="0px"
	 width="100%" viewBox="0 0 300 300" enable-background="new 0 0 300 300" xml:space="preserve">
<path fill="#FEFFFF" opacity="1.000000" stroke="none" 
	d="
M168.000000,301.000000 
	C112.000008,301.000000 56.500019,301.000000 1.000022,301.000000 
	C1.000015,201.000031 1.000015,101.000053 1.000007,1.000063 
	C100.999962,1.000042 200.999924,1.000042 300.999908,1.000021 
	C300.999939,100.999939 300.999939,200.999878 300.999969,300.999908 
	C256.833344,301.000000 212.666672,301.000000 168.000000,301.000000 
M106.879677,40.144108 
	C105.717529,38.165997 104.555382,36.187889 102.791161,33.184986 
	C100.937889,34.554771 98.174301,35.605923 97.226158,37.544838 
	C95.993614,40.065365 98.212769,41.629894 101.435341,42.304771 
	C102.654419,43.474262 103.873505,44.643757 105.037796,46.530621 
	C105.455002,49.118690 104.242302,49.700935 101.390732,48.704063 
	C99.293404,47.134899 97.196068,45.565735 94.719269,43.712662 
	C87.677139,51.809875 80.773399,59.561726 74.078430,67.489868 
	C64.138550,79.260612 54.306435,91.123405 44.547485,103.044456 
	C43.457966,104.375351 43.141384,106.339005 42.684929,108.796196 
	C45.816730,118.270363 49.122280,127.692276 51.995304,137.244278 
	C53.153954,141.096466 55.336811,142.621841 59.112171,142.771179 
	C65.424080,143.020889 71.729202,143.438538 78.038307,143.763428 
	C88.313133,144.292557 98.588890,144.803925 108.864250,145.322784 
	C108.861298,145.636978 108.858337,145.951172 108.855385,146.265366 
	C106.711922,146.265366 104.568466,146.265244 102.425003,146.265381 
	C87.762970,146.266296 73.093025,146.004578 58.444244,146.445740 
	C54.596024,146.561630 50.813374,148.854935 46.367546,149.991135 
	C44.648193,150.888367 42.928844,151.785614 41.880825,152.955444 
	C44.986244,154.601807 48.091663,156.248169 50.963890,158.820618 
	C50.940758,164.440430 50.902493,170.060242 50.897633,175.680069 
	C50.887344,187.576202 50.894497,187.576202 62.901512,188.672134 
	C62.883121,189.004883 62.844700,189.335297 61.980839,189.731033 
	C60.362617,189.712555 58.744396,189.694077 56.765594,189.353958 
	C56.459984,189.176834 56.147381,189.163666 55.066284,189.340317 
	C51.121113,189.325775 47.175945,189.311234 42.618534,189.160889 
	C42.205315,189.490967 41.792095,189.821030 41.378880,190.151108 
	C41.830612,190.490219 42.282345,190.829315 43.067204,191.755539 
	C54.010174,201.625290 64.903458,211.551468 75.962601,221.289276 
	C77.260780,222.432327 80.282639,223.589264 81.119377,222.943588 
	C84.737160,220.151932 87.839500,216.692307 91.648048,213.154495 
	C91.813568,212.799042 91.979095,212.443588 92.185539,212.183792 
	C92.185539,212.183792 92.285133,212.213943 92.982040,212.088242 
	C94.824043,212.407547 97.234436,212.088379 98.420624,213.144363 
	C111.060783,224.397247 123.481819,235.895737 136.017654,247.266556 
	C141.608154,252.337494 147.322281,257.272125 153.014862,262.299164 
	C155.978073,259.629272 158.443939,257.421295 160.894943,255.196930 
	C177.474304,240.150543 194.050110,225.100250 210.628128,210.052399 
	C213.142990,207.769653 215.691345,205.720581 219.211212,209.650085 
	C221.815964,212.046173 224.420700,214.442261 227.210052,217.008133 
	C237.976471,207.194519 248.464890,197.634277 259.749878,187.347992 
	C256.353119,187.028381 254.315796,186.836685 252.138153,186.631775 
	C251.956680,183.110458 251.796249,179.997467 251.838272,175.983276 
	C251.862854,171.219330 252.075684,166.446426 251.849228,161.694443 
	C251.683945,158.226105 252.059372,155.601105 256.073975,154.604538 
	C256.707947,154.447159 256.797119,152.095261 256.965332,150.077820 
	C253.949036,148.083969 250.932724,146.090134 247.974579,143.301300 
	C249.675720,135.559158 251.461594,127.833679 252.990540,120.057686 
	C253.231323,118.833122 252.309235,117.379890 251.891876,115.336800 
	C251.678772,114.890320 251.530029,114.396851 251.243332,114.004082 
	C233.490753,89.682770 215.726868,65.369698 197.697342,40.398544 
	C197.005661,40.042908 196.248672,39.291065 195.632355,39.392651 
	C189.136642,40.463337 182.677231,41.754864 176.180603,42.819382 
	C166.747177,44.365120 157.291351,45.774139 147.034180,47.150990 
	C133.696228,45.027740 120.358276,42.904491 106.879677,40.144108 
z"/>
<path fill="#6FB3E0" opacity="1.000000" stroke="none" 
	d="
M218.897156,209.034821 
	C215.691345,205.720581 213.142990,207.769653 210.628128,210.052399 
	C194.050110,225.100250 177.474304,240.150543 160.894943,255.196930 
	C158.443939,257.421295 155.978073,259.629272 153.014862,262.299164 
	C147.322281,257.272125 141.608154,252.337494 136.017654,247.266556 
	C123.481819,235.895737 111.060783,224.397247 98.420624,213.144363 
	C97.234436,212.088379 94.824043,212.407547 92.545448,211.788025 
	C92.074707,210.993988 92.040558,210.500198 92.246758,209.992172 
	C92.761894,209.858490 93.036690,209.739044 93.311478,209.619598 
	C93.223671,209.496048 93.064789,209.260742 93.058220,209.264938 
	C92.696022,209.495285 92.346558,209.745667 91.585724,209.979523 
	C87.188759,208.541046 89.390182,205.241959 89.282936,202.797760 
	C89.259155,202.255783 91.739967,201.456131 93.146027,201.040756 
	C94.554642,200.624649 96.053978,200.432327 97.526543,200.331375 
	C102.263283,200.006638 107.013191,199.467209 111.744522,199.579468 
	C116.944885,199.702866 122.124443,200.625580 127.326736,200.806107 
	C128.479523,200.846100 129.689575,199.235825 131.328445,198.058411 
	C120.839897,196.620117 111.333084,194.918716 101.752190,194.186172 
	C97.554878,193.865265 97.130577,192.396103 96.842751,188.848831 
	C96.521133,184.885208 94.994644,181.019348 94.391167,176.996002 
	C95.195023,175.243073 95.896202,173.614670 95.949654,171.965256 
	C96.106392,167.128555 96.005463,162.283493 96.005463,156.714340 
	C99.621109,157.997482 102.312729,158.952698 105.373917,159.986603 
	C119.533417,165.421906 133.309998,170.813232 147.116943,176.125626 
	C161.574341,181.688263 175.996063,187.354797 190.564911,192.611404 
	C196.877472,194.889069 203.519577,196.253403 210.167038,198.367035 
	C210.970078,199.423492 211.751877,200.851868 212.245453,200.758392 
	C217.250488,199.810547 217.113937,205.415558 220.197662,206.808701 
	C219.764160,207.550735 219.330658,208.292770 218.897156,209.034821 
z"/>
<path fill="#C4E3F7" opacity="1.000000" stroke="none" 
	d="
M42.466351,108.009201 
	C43.141384,106.339005 43.457966,104.375351 44.547485,103.044456 
	C54.306435,91.123405 64.138550,79.260612 74.078430,67.489868 
	C80.773399,59.561726 87.677139,51.809875 94.719269,43.712662 
	C97.196068,45.565735 99.293404,47.134899 101.750763,49.195213 
	C107.495804,53.708309 112.810616,57.828915 118.285576,61.724438 
	C123.756683,65.617210 129.388031,69.284760 135.017441,73.383057 
	C137.748657,75.455704 140.411591,77.196335 143.045288,78.971634 
	C143.016052,79.006294 143.056702,78.926125 143.081879,79.262047 
	C144.449829,80.015350 145.792618,80.432739 147.467407,80.927185 
	C151.865143,84.681801 155.930878,88.359360 160.114594,92.262009 
	C160.514481,92.669022 160.796402,92.850945 161.064728,93.403885 
	C158.622299,99.379875 156.185684,104.981491 153.766235,110.590500 
	C148.715744,122.299019 143.674316,134.011444 138.286926,145.742065 
	C136.496857,145.415421 134.968933,145.260681 133.613190,144.694016 
	C109.909447,134.786224 86.265251,124.734734 62.514462,114.941612 
	C55.988464,112.250763 49.157421,110.299721 42.466351,108.009201 
z"/>
<path fill="#5795BC" opacity="1.000000" stroke="none" 
	d="
M138.629181,145.722275 
	C143.674316,134.011444 148.715744,122.299019 153.766235,110.590500 
	C156.185684,104.981491 158.622299,99.379875 161.301758,93.407066 
	C161.552368,93.039223 162.026810,93.014038 162.406372,93.029449 
	C165.887604,94.082420 168.945938,95.280991 172.098389,96.129959 
	C186.452118,99.995415 200.823456,103.796440 215.206039,107.553337 
	C225.079987,110.132530 234.970398,112.651741 244.881943,115.081543 
	C247.169785,115.642395 249.574127,115.728065 251.924850,116.032394 
	C252.309235,117.379890 253.231323,118.833122 252.990540,120.057686 
	C251.461594,127.833679 249.675720,135.559158 247.759140,144.027802 
	C243.906158,145.491440 240.272034,146.848206 236.630539,146.868271 
	C205.664154,147.038925 174.696411,146.986084 143.729263,146.913757 
	C142.028320,146.909790 140.329163,146.137131 138.629181,145.722275 
z"/>
<path fill="#6CB8E6" opacity="1.000000" stroke="none" 
	d="
M251.908356,115.684601 
	C249.574127,115.728065 247.169785,115.642395 244.881943,115.081543 
	C234.970398,112.651741 225.079987,110.132530 215.206039,107.553337 
	C200.823456,103.796440 186.452118,99.995415 172.098389,96.129959 
	C168.945938,95.280991 165.887604,94.082420 162.388153,92.745323 
	C161.981705,92.256279 161.973038,92.066765 162.236649,91.693085 
	C172.932571,75.606079 183.318039,59.677853 193.851669,43.848228 
	C194.701660,42.570881 196.569290,41.970711 197.964020,41.055862 
	C215.726868,65.369698 233.490753,89.682770 251.243332,114.004082 
	C251.530029,114.396851 251.678772,114.890320 251.908356,115.684601 
z"/>
<path fill="#6EB9E6" opacity="1.000000" stroke="none" 
	d="
M138.286926,145.742065 
	C140.329163,146.137131 142.028320,146.909790 143.729263,146.913757 
	C174.696411,146.986084 205.664154,147.038925 236.630539,146.868271 
	C240.272034,146.848206 243.906158,145.491440 247.730072,144.425293 
	C250.932724,146.090134 253.949036,148.083969 256.672424,150.625671 
	C251.250183,151.422485 246.120865,151.671478 240.895630,151.532761 
	C239.620575,150.763718 238.442078,150.051727 237.262146,150.049347 
	C206.814484,149.988144 176.366608,149.976852 145.919189,150.082825 
	C144.611176,150.087372 143.307373,151.292770 141.622528,151.947433 
	C140.485489,151.941101 139.727554,151.926102 138.883667,151.762115 
	C138.541168,151.713028 138.284622,151.812958 137.683777,151.932556 
	C136.879883,151.943832 136.420303,151.935425 135.661621,151.646225 
	C127.907944,151.241806 120.453331,151.118164 113.203377,150.740173 
	C114.272667,150.184769 115.137306,149.883713 116.001945,149.582657 
	C112.964577,149.531693 109.706680,145.273651 106.654274,150.017029 
	C105.884964,150.013351 105.445366,150.010605 104.914474,149.610107 
	C103.995911,148.811417 103.170319,148.065002 102.341087,148.060944 
	C87.766052,147.989639 73.188805,147.901505 58.617336,148.140549 
	C56.729645,148.171524 54.871346,149.994171 52.635597,150.991257 
	C51.187943,151.321426 50.104122,151.647232 48.683792,151.995865 
	C47.897728,152.018173 47.448170,152.017654 47.001266,151.705261 
	C47.002819,150.978363 47.001717,150.563339 47.000610,150.148315 
	C50.813374,148.854935 54.596024,146.561630 58.444244,146.445740 
	C73.093025,146.004578 87.762970,146.266296 102.425003,146.265381 
	C104.568466,146.265244 106.711922,146.265366 108.855385,146.265366 
	C108.858337,145.951172 108.861298,145.636978 108.864250,145.322784 
	C98.588890,144.803925 88.313133,144.292557 78.038307,143.763428 
	C71.729202,143.438538 65.424080,143.020889 59.112171,142.771179 
	C55.336811,142.621841 53.153954,141.096466 51.995304,137.244278 
	C49.122280,127.692276 45.816730,118.270363 42.575638,108.402695 
	C49.157421,110.299721 55.988464,112.250763 62.514462,114.941612 
	C86.265251,124.734734 109.909447,134.786224 133.613190,144.694016 
	C134.968933,145.260681 136.496857,145.415421 138.286926,145.742065 
z"/>
<path fill="#6BB4EA" opacity="1.000000" stroke="none" 
	d="
M93.992523,177.110931 
	C94.994644,181.019348 96.521133,184.885208 96.842751,188.848831 
	C97.130577,192.396103 97.554878,193.865265 101.752190,194.186172 
	C111.333084,194.918716 120.839897,196.620117 131.328445,198.058411 
	C129.689575,199.235825 128.479523,200.846100 127.326736,200.806107 
	C122.124443,200.625580 116.944885,199.702866 111.744522,199.579468 
	C107.013191,199.467209 102.263283,200.006638 97.526543,200.331375 
	C96.053978,200.432327 94.554642,200.624649 93.146027,201.040756 
	C91.739967,201.456131 89.259155,202.255783 89.282936,202.797760 
	C89.390182,205.241959 87.188759,208.541046 91.587891,209.982574 
	C92.000130,210.000137 92.006409,210.006393 92.006409,210.006393 
	C92.040558,210.500198 92.074707,210.993988 92.196991,211.850861 
	C92.285133,212.213943 92.185539,212.183792 91.884529,212.267746 
	C91.432137,212.726364 91.280762,213.101044 91.129379,213.475708 
	C87.839500,216.692307 84.737160,220.151932 81.119377,222.943588 
	C80.282639,223.589264 77.260780,222.432327 75.962601,221.289276 
	C64.903458,211.551468 54.010174,201.625290 42.999260,191.151962 
	C43.031136,190.131149 43.130955,189.713928 43.230774,189.296692 
	C47.175945,189.311234 51.121113,189.325775 55.627125,189.490448 
	C56.187965,189.640579 56.651981,189.793106 56.651981,189.793106 
	C56.651981,189.793106 57.126175,189.675613 57.126175,189.675598 
	C58.744396,189.694077 60.362617,189.712555 62.843208,189.820251 
	C66.626587,189.909485 69.547600,189.909485 72.468613,189.909485 
	C72.454613,189.330002 72.440613,188.750519 72.426613,188.171036 
	C69.242088,188.171036 66.057564,188.171036 62.873043,188.171036 
	C50.894497,187.576202 50.887344,187.576202 50.897633,175.680069 
	C50.902493,170.060242 50.940758,164.440430 51.458252,158.373550 
	C52.926266,158.107224 53.997787,158.084946 54.858501,158.499924 
	C64.038101,162.925629 73.166336,167.457932 82.348251,171.878769 
	C86.180923,173.724075 90.108238,175.372818 93.992523,177.110931 
M54.000610,175.439056 
	C54.000610,170.504547 54.000610,165.570053 54.000610,160.635544 
	C53.572666,160.667496 53.144718,160.699432 52.716774,160.731369 
	C52.716774,168.584259 52.716774,176.437149 52.716774,184.290039 
	C53.144718,184.284271 53.572666,184.278503 54.000610,184.272736 
	C54.000610,181.652145 54.000610,179.031540 54.000610,175.439056 
z"/>
<path fill="#5691BD" opacity="1.000000" stroke="none" 
	d="
M94.391167,176.996002 
	C90.108238,175.372818 86.180923,173.724075 82.348251,171.878769 
	C73.166336,167.457932 64.038101,162.925629 54.858501,158.499924 
	C53.997787,158.084946 52.926266,158.107224 51.574852,157.910507 
	C48.091663,156.248169 44.986244,154.601807 41.840233,152.617249 
	C43.532631,152.191757 45.265625,152.104446 46.998615,152.017120 
	C47.448170,152.017654 47.897728,152.018173 49.150009,152.005127 
	C78.622063,151.970047 107.291389,151.948532 135.960709,151.927002 
	C136.420303,151.935425 136.879883,151.943832 137.919006,151.949524 
	C138.498535,151.946808 138.969620,151.911118 138.969620,151.911118 
	C139.727554,151.926102 140.485489,151.941101 142.090073,151.978180 
	C175.621658,151.973663 208.306595,151.947052 240.991531,151.920456 
	C246.120865,151.671478 251.250183,151.422485 256.758850,150.965759 
	C256.797119,152.095261 256.707947,154.447159 256.073975,154.604538 
	C252.059372,155.601105 251.683945,158.226105 251.849228,161.694443 
	C252.075684,166.446426 251.862854,171.219330 251.460342,176.270325 
	C239.407669,171.025909 227.732925,165.494461 215.902466,159.681488 
	C214.830475,158.948624 213.914200,158.497299 212.619995,158.013779 
	C211.483765,157.974045 210.725494,157.966492 209.686035,157.676514 
	C206.602463,157.261795 203.800095,157.129532 200.705200,156.698853 
	C199.769531,156.267822 199.126495,156.019714 198.483246,156.019196 
	C171.208832,155.997513 143.934357,155.984695 116.660042,156.038727 
	C115.437744,156.041138 114.216698,156.674942 112.749924,157.288055 
	C110.196442,157.339890 107.888107,157.118301 105.276123,156.867554 
	C105.203667,157.678177 105.104004,158.793045 105.004349,159.907913 
	C102.312729,158.952698 99.621109,157.997482 96.005463,156.714340 
	C96.005463,162.283493 96.106392,167.128555 95.949654,171.965256 
	C95.896202,173.614670 95.195023,175.243073 94.391167,176.996002 
z"/>
<path fill="#6BB4EA" opacity="1.000000" stroke="none" 
	d="
M209.967209,157.958954 
	C210.725494,157.966492 211.483765,157.974045 212.621552,158.328262 
	C214.020096,159.104309 215.039124,159.533676 216.058167,159.963013 
	C227.732925,165.494461 239.407669,171.025909 251.359131,176.720917 
	C251.796249,179.997467 251.956680,183.110458 252.138153,186.631775 
	C254.315796,186.836685 256.353119,187.028381 259.749878,187.347992 
	C248.464890,197.634277 237.976471,207.194519 227.210052,217.008133 
	C224.420700,214.442261 221.815964,212.046173 219.054184,209.342453 
	C219.330658,208.292770 219.764160,207.550735 220.197662,206.808701 
	C217.113937,205.415558 217.250488,199.810547 212.245453,200.758392 
	C211.751877,200.851868 210.970078,199.423492 210.163986,197.894745 
	C209.981537,185.052902 209.957169,173.017807 209.954498,160.655106 
	C209.962402,159.890244 209.948608,159.452972 209.950867,158.751770 
	C209.967041,158.311539 209.967133,158.135239 209.967209,157.958954 
z"/>
<path fill="#6EB9E6" opacity="1.000000" stroke="none" 
	d="
M159.996613,92.036919 
	C155.930878,88.359360 151.865143,84.681801 147.256989,80.668549 
	C145.495285,79.863937 144.276001,79.395035 143.056702,78.926125 
	C143.056702,78.926125 143.016052,79.006294 143.083374,78.615196 
	C141.173325,76.459366 139.195969,74.694641 137.096405,72.610535 
	C133.879410,69.598541 130.842804,66.835289 127.678154,64.227425 
	C120.181969,58.050125 112.624992,51.946594 105.092583,45.813248 
	C103.873505,44.643757 102.654419,43.474262 101.364082,41.833817 
	C103.201988,41.168983 105.111160,40.975113 107.020325,40.781242 
	C120.358276,42.904491 133.696228,45.027740 147.714905,47.417412 
	C149.581573,49.279312 151.402100,50.714596 151.851822,52.495945 
	C155.081619,65.289375 158.033035,78.153091 160.940247,91.213394 
	C160.537338,91.633827 160.266983,91.835373 159.996613,92.036919 
z"/>
<path fill="#C2E3F7" opacity="1.000000" stroke="none" 
	d="
M161.072800,90.994499 
	C158.033035,78.153091 155.081619,65.289375 151.851822,52.495945 
	C151.402100,50.714596 149.581573,49.279312 148.120361,47.462646 
	C157.291351,45.774139 166.747177,44.365120 176.180603,42.819382 
	C182.677231,41.754864 189.136642,40.463337 195.632355,39.392651 
	C196.248672,39.291065 197.005661,40.042908 197.830688,40.727203 
	C196.569290,41.970711 194.701660,42.570881 193.851669,43.848228 
	C183.318039,59.677853 172.932571,75.606079 162.141174,91.500122 
	C161.586945,91.259399 161.353409,91.093788 161.072800,90.994499 
z"/>
<path fill="#EEF8FC" opacity="1.000000" stroke="none" 
	d="
M105.065186,46.171932 
	C112.624992,51.946594 120.181969,58.050125 127.678154,64.227425 
	C130.842804,66.835289 133.879410,69.598541 136.717773,72.636017 
	C135.957245,73.004257 135.453201,73.027649 134.949142,73.051041 
	C129.388031,69.284760 123.756683,65.617210 118.285576,61.724438 
	C112.810616,57.828915 107.495804,53.708309 102.051224,49.346119 
	C104.242302,49.700935 105.455002,49.118690 105.065186,46.171932 
z"/>
<path fill="#F0F9F9" opacity="1.000000" stroke="none" 
	d="
M106.949997,40.462677 
	C105.111160,40.975113 103.201988,41.168983 101.061745,41.705063 
	C98.212769,41.629894 95.993614,40.065365 97.226158,37.544838 
	C98.174301,35.605923 100.937889,34.554771 102.791161,33.184986 
	C104.555382,36.187889 105.717529,38.165997 106.949997,40.462677 
z"/>
<path fill="#BBDBF1" opacity="1.000000" stroke="none" 
	d="
M62.887276,188.421585 
	C66.057564,188.171036 69.242088,188.171036 72.426613,188.171036 
	C72.440613,188.750519 72.454613,189.330002 72.468613,189.909485 
	C69.547600,189.909485 66.626587,189.909485 63.245911,189.786438 
	C62.844700,189.335297 62.883121,189.004883 62.887276,188.421585 
z"/>
<path fill="#7EBBE2" opacity="1.000000" stroke="none" 
	d="
M47.001266,151.705261 
	C45.265625,152.104446 43.532631,152.191757 41.504566,152.480957 
	C42.928844,151.785614 44.648193,150.888367 46.684082,150.069733 
	C47.001717,150.563339 47.002819,150.978363 47.001266,151.705261 
z"/>
<path fill="#BBDBF1" opacity="1.000000" stroke="none" 
	d="
M42.924656,189.228790 
	C43.130955,189.713928 43.031136,190.131149 42.832695,190.858398 
	C42.282345,190.829315 41.830612,190.490219 41.378876,190.151093 
	C41.792095,189.821030 42.205315,189.490967 42.924656,189.228790 
z"/>
<path fill="#BBDBF1" opacity="1.000000" stroke="none" 
	d="
M56.945885,189.514786 
	C57.126175,189.675613 56.651981,189.793106 56.651981,189.793106 
	C56.651981,189.793106 56.187965,189.640579 56.007874,189.477524 
	C56.147381,189.163666 56.459984,189.176834 56.945885,189.514786 
z"/>
<path fill="#6FB3E0" opacity="1.000000" stroke="none" 
	d="
M91.388718,213.315094 
	C91.280762,213.101044 91.432137,212.726364 91.864067,212.219910 
	C91.979095,212.443588 91.813568,212.799042 91.388718,213.315094 
z"/>
<path fill="#5792B6" opacity="1.000000" stroke="none" 
	d="
M209.686035,157.676514 
	C209.967133,158.135239 209.967041,158.311539 209.737976,158.897507 
	C209.650269,159.865692 209.791550,160.424194 209.932816,160.982712 
	C209.957169,173.017807 209.981537,185.052902 210.008957,197.560287 
	C203.519577,196.253403 196.877472,194.889069 190.564911,192.611404 
	C175.996063,187.354797 161.574341,181.688263 147.116943,176.125626 
	C133.309998,170.813232 119.533417,165.421906 105.373917,159.986603 
	C105.104004,158.793045 105.203667,157.678177 105.276123,156.867554 
	C107.888107,157.118301 110.196442,157.339890 113.219154,157.283203 
	C142.954926,157.002380 171.976318,156.999817 200.997711,156.997269 
	C203.800095,157.129532 206.602463,157.261795 209.686035,157.676514 
z"/>
<path fill="#6BB4EA" opacity="1.000000" stroke="none" 
	d="
M91.997971,209.997070 
	C92.346558,209.745667 92.696022,209.495285 93.058220,209.264938 
	C93.064789,209.260742 93.223671,209.496048 93.311478,209.619598 
	C93.036690,209.739044 92.761894,209.858490 92.246758,209.992172 
	C92.006409,210.006393 92.000130,210.000137 91.997971,209.997070 
z"/>
<path fill="#DDF2FB" opacity="1.000000" stroke="none" 
	d="
M135.017441,73.383057 
	C135.453201,73.027649 135.957245,73.004257 136.839951,72.955383 
	C139.195969,74.694641 141.173325,76.459366 143.112610,78.580536 
	C140.411591,77.196335 137.748657,75.455704 135.017441,73.383057 
z"/>
<path fill="#DDF2FB" opacity="1.000000" stroke="none" 
	d="
M143.081879,79.262047 
	C144.276001,79.395035 145.495285,79.863937 146.924988,80.591484 
	C145.792618,80.432739 144.449829,80.015350 143.081879,79.262047 
z"/>
<path fill="#AFDAF1" opacity="1.000000" stroke="none" 
	d="
M160.940247,91.213394 
	C161.353409,91.093788 161.586945,91.259399 161.868881,91.684288 
	C161.973038,92.066765 161.981705,92.256279 162.008606,92.729919 
	C162.026810,93.014038 161.552368,93.039223 161.315338,93.036041 
	C160.796402,92.850945 160.514481,92.669022 160.114594,92.262009 
	C160.266983,91.835373 160.537338,91.633827 160.940247,91.213394 
z"/>
<path fill="#73B8E5" opacity="1.000000" stroke="none" 
	d="
M240.895630,151.532761 
	C208.306595,151.947052 175.621658,151.973663 142.469177,151.969513 
	C143.307373,151.292770 144.611176,150.087372 145.919189,150.082825 
	C176.366608,149.976852 206.814484,149.988144 237.262146,150.049347 
	C238.442078,150.051727 239.620575,150.763718 240.895630,151.532761 
z"/>
<path fill="#7EBBE2" opacity="1.000000" stroke="none" 
	d="
M135.661621,151.646240 
	C107.291389,151.948532 78.622063,151.970047 49.486519,151.982300 
	C50.104122,151.647232 51.187943,151.321426 53.064610,150.994324 
	C58.293583,150.662842 62.727280,150.093063 67.166306,150.047989 
	C79.778290,149.919922 92.392456,150.006058 105.005760,150.007874 
	C105.445366,150.010605 105.884964,150.013351 106.921547,150.294922 
	C109.345261,150.714005 111.171989,150.854263 112.998726,150.994522 
	C120.453331,151.118164 127.907944,151.241806 135.661621,151.646240 
z"/>
<path fill="#66BBEC" opacity="1.000000" stroke="none" 
	d="
M104.914474,149.610107 
	C92.392456,150.006058 79.778290,149.919922 67.166306,150.047989 
	C62.727280,150.093063 58.293583,150.662842 53.428444,150.989960 
	C54.871346,149.994171 56.729645,148.171524 58.617336,148.140549 
	C73.188805,147.901505 87.766052,147.989639 102.341087,148.060944 
	C103.170319,148.065002 103.995911,148.811417 104.914474,149.610107 
z"/>
<path fill="#66BBEC" opacity="1.000000" stroke="none" 
	d="
M113.203377,150.740158 
	C111.171989,150.854263 109.345261,150.714005 107.251251,150.295868 
	C109.706680,145.273651 112.964577,149.531693 116.001945,149.582657 
	C115.137306,149.883713 114.272667,150.184769 113.203377,150.740158 
z"/>
<path fill="#7EBBE2" opacity="1.000000" stroke="none" 
	d="
M138.883667,151.762115 
	C138.969620,151.911118 138.498535,151.946808 138.263306,151.929840 
	C138.284622,151.812958 138.541168,151.713028 138.883667,151.762115 
z"/>
<path fill="#5DADEC" opacity="1.000000" stroke="none" 
	d="
M54.000610,175.925003 
	C54.000610,179.031540 54.000610,181.652145 54.000610,184.272736 
	C53.572666,184.278503 53.144718,184.284271 52.716774,184.290039 
	C52.716774,176.437149 52.716774,168.584259 52.716774,160.731369 
	C53.144718,160.699432 53.572666,160.667496 54.000610,160.635544 
	C54.000610,165.570053 54.000610,170.504547 54.000610,175.925003 
z"/>
<path fill="#64A0BD" opacity="1.000000" stroke="none" 
	d="
M200.705200,156.698853 
	C171.976318,156.999817 142.954926,157.002380 113.464294,157.009796 
	C114.216698,156.674942 115.437744,156.041138 116.660042,156.038727 
	C143.934357,155.984695 171.208832,155.997513 198.483246,156.019196 
	C199.126495,156.019714 199.769531,156.267822 200.705200,156.698853 
z"/>
<path fill="#6FB3E0" opacity="1.000000" stroke="none" 
	d="
M215.902466,159.681488 
	C215.039124,159.533676 214.020096,159.104309 212.999496,158.360458 
	C213.914200,158.497299 214.830475,158.948624 215.902466,159.681488 
z"/>
<path fill="#5691BD" opacity="1.000000" stroke="none" 
	d="
M209.954529,160.655106 
	C209.791550,160.424194 209.650269,159.865692 209.721893,159.161453 
	C209.948608,159.452972 209.962402,159.890244 209.954529,160.655106 
z"/>
</svg>